<svg width="36" height="30" viewBox="0 0 36 30" fill="none" xmlns="http://www.w3.org/2000/svg">
<path d="M13.8016 29.1058L13.7917 29.101L13.7607 29.0817C13.5791 28.9681 13.3989 28.8515 13.2203 28.732C11.0727 27.281 9.06575 25.5765 7.23266 23.6468C3.98629 20.2026 0.546631 15.0918 0.546631 8.79702C0.546631 4.10002 4.02297 0.375144 8.21885 0.375144C9.38527 0.368648 10.538 0.661232 11.5912 1.23114C12.6445 1.80104 13.5712 2.6336 14.3024 3.66689C15.0338 2.63339 15.9608 1.8007 17.0143 1.23079C18.0678 0.660874 19.2208 0.368407 20.3875 0.375144C24.5819 0.375144 28.0583 4.10002 28.0583 8.79702C28.0583 15.0934 24.6186 20.2042 21.3722 23.6452C19.5392 25.575 17.5322 27.2795 15.3846 28.7304C15.2059 28.8505 15.0258 28.9676 14.8442 29.0817L14.8132 29.101L14.8033 29.1074L14.7991 29.109C14.6461 29.2011 14.4756 29.2493 14.3024 29.2493C14.1293 29.2493 13.9588 29.2011 13.8058 29.109L13.8016 29.1058Z" fill="white"/>
<path d="M26.2663 26.4543L30.124 17.8835H27.4635V12.3377L23.4728 20.9085H26.2663V26.4543ZM26.7984 29.4793C25.5716 29.4793 24.4188 29.2146 23.3398 28.6853C22.2608 28.1559 21.3223 27.4374 20.5241 26.5299C19.726 25.6224 19.0941 24.5553 18.6285 23.3285C18.163 22.1017 17.9302 20.7908 17.9302 19.396C17.9302 18.0011 18.163 16.6903 18.6285 15.4635C19.0941 14.2367 19.726 13.1695 20.5241 12.262C21.3223 11.3545 22.2608 10.6361 23.3398 10.1067C24.4188 9.57734 25.5716 9.31265 26.7984 9.31265C28.0252 9.31265 29.178 9.57734 30.257 10.1067C31.336 10.6361 32.2745 11.3545 33.0727 12.262C33.8708 13.1695 34.5027 14.2367 34.9682 15.4635C35.4338 16.6903 35.6666 18.0011 35.6666 19.396C35.6666 20.7908 35.4338 22.1017 34.9682 23.3285C34.5027 24.5553 33.8708 25.6224 33.0727 26.5299C32.2745 27.4374 31.336 28.1559 30.257 28.6853C29.178 29.2146 28.0252 29.4793 26.7984 29.4793Z" fill="#894189"/>
<path d="M26.7179 25.8126L30.2249 18.0209H27.8063V12.9793L24.1784 20.7709H26.7179V25.8126ZM27.2017 28.5626C26.0864 28.5626 25.0384 28.322 24.0575 27.8407C23.0766 27.3595 22.2234 26.7064 21.4978 25.8814C20.7722 25.0564 20.1978 24.0862 19.7745 22.9709C19.3513 21.8557 19.1396 20.664 19.1396 19.3959C19.1396 18.1279 19.3513 16.9362 19.7745 15.8209C20.1978 14.7057 20.7722 13.7355 21.4978 12.9105C22.2234 12.0855 23.0766 11.4324 24.0575 10.9512C25.0384 10.4699 26.0864 10.2293 27.2017 10.2293C28.3169 10.2293 29.365 10.4699 30.3459 10.9512C31.3267 11.4324 32.18 12.0855 32.9055 12.9105C33.6311 13.7355 34.2055 14.7057 34.6288 15.8209C35.0521 16.9362 35.2637 18.1279 35.2637 19.3959C35.2637 20.664 35.0521 21.8557 34.6288 22.9709C34.2055 24.0862 33.6311 25.0564 32.9055 25.8814C32.18 26.7064 31.3267 27.3595 30.3459 27.8407C29.365 28.322 28.3169 28.5626 27.2017 28.5626Z" fill="white"/>
</svg>
